<svg viewBox="0 0 300 300">
    <g id="SvgjsG2611" featurekey="symbolContainer" fill="#222831">
        <circle cx="150" cy="150" r="150"></circle>
    </g>
    <g id="SvgjsG2612" featurekey="monogramFeature-0" transform="matrix(4,0,0,4, 67.44, 0)" fill="#eeeeee">
        <path
            d="M21.78 15 c10.2 0 13.8 3.12 14.22 13.02 l0.06 18.78 c0 0.06 0.84 0.18 1.02 0.3 c0.48 0.18 1.2 0.6 1.2 1.2 l0 5.94 c0 0.42 -0.42 1.14 -0.9 1.14 l-10.62 0 c-0.06 -0.06 -0.06 -0.06 -0.18 -0.06 l-4.08 0.36 c-8.16 0 -13.02 -1.08 -14.16 -10.2 c-0.06 -0.36 -0.18 -1.56 -0.18 -1.74 l-0.12 -2.52 l0 -12.36 l0 -1.02 c0.6 -10.32 3.96 -12.84 13.74 -12.84 z M5.16 23.4 l3.72 -2.82 c-0.18 0.36 -0.36 0.72 -0.48 1.08 l-3.9 2.94 c0.18 -0.42 0.36 -0.84 0.66 -1.2 z M4.02 25.92 l3.9 -3 l-0.24 0.9 l-3.96 3 c0 -0.06 0 -0.12 0.06 -0.18 c0 -0.12 0.12 -0.6 0.24 -0.72 z M16.26 26.520000000000003 l2.16 -1.56 c0.36 -0.06 0.78 -0.12 1.14 -0.12 l-3.36 2.46 c-0.12 0.66 -0.18 1.38 -0.18 2.04 l0 11.58 c0 0.9 0.12 1.86 0.18 2.76 c0.24 1.98 0.96 2.82 2.88 3.06 c1.2 0.06 2.4 0.12 3.6 0.12 l0.18 -0.06 c0 -0.18 0.06 -0.42 0.06 -0.48 l4.02 -3 c0 0.3 -0.06 0.72 -0.06 0.72 l-3.66 2.76 l0.18 0 c0.24 0 1.14 -0.06 1.2 -0.06 l2.04 -1.56 c0 0.3 -0.18 0.72 -0.36 1.02 c1.62 -0.9 1.68 -3.9 1.68 -5.58 l0 -11.52 c0 -5.16 -1.5 -5.28 -6 -5.28 l-1.32 0 c-1.68 0 -4.38 0.48 -4.38 2.7 z M17.34 28.14 l-0.96 0 l4.44 -3.3 l0.96 0 z M18.6 28.14 l4.38 -3.3 c0.36 0 0.6 0 0.84 0.06 l-4.38 3.3 c-0.3 0 -0.84 -0.06 -0.84 -0.06 z M7.32 25.740000000000002 l-3.96 3 s0.06 -0.54 0.12 -0.84 l4.02 -2.94 l0 0.06 z M20.46 28.38 l4.32 -3.24 l0.06 0 c0.12 0 0.42 0.18 0.6 0.24 l-4.32 3.18 c-0.18 -0.06 -0.42 -0.12 -0.66 -0.18 z M21.84 28.98 l4.26 -3.18 s0.3 0.42 0.3 0.54 l-4.14 3.06 l-0.18 -0.18 z M3.18 29.82 l4.02 -3 l0 0.72 l-4.08 3 c0.06 -0.24 0.06 -0.72 0.06 -0.72 z M22.56 30.12 l0.06 -0.06 l4.08 -3.06 s0.12 0.54 0.12 0.6 l-4.08 3.06 s-0.06 -0.24 -0.12 -0.3 c0 0 -0.06 -0.18 -0.06 -0.24 z M22.86 31.56 l4.08 -3.06 c0 0.18 0.06 0.42 0.06 0.66 l-4.08 3.06 c-0.06 -0.24 -0.06 -0.66 -0.06 -0.66 z M3.06 32.16 c0 -0.12 -0.06 -0.6 0 -0.6 l4.02 -3 c0 0.18 0.06 0.66 -0.06 0.72 l-3.96 3 l0 -0.12 z M22.98 33.120000000000005 l4.02 -3.06 l0.06 0.12 l0 0.6 l-4.02 3 l-0.06 0.06 l0 -0.72 z M3 33.96 l0 -0.72 l4.08 -3 l0 0.72 z M22.98 35.46 l0 -0.72 l4.08 -3 l0 0.72 l-4.02 3 l-0.06 0 z M3 35.58 l0 -0.66 l4.08 -3.06 l0 0.66 z M22.98 36.42 l4.08 -3.06 l0 0.72 l-4.08 3.06 l0 -0.72 z M3 36.480000000000004 l4.08 -3 l0 0.72 l-4.08 3 l0 -0.72 z M22.98 38.1 l4.08 -3.06 l0 0.72 l-4.08 3.06 l0 -0.72 z M3 38.16 l4.08 -3.06 l0 0.72 l-4.08 3.06 l0 -0.72 z M22.98 40.379999999999995 l0 -0.66 l3.96 -3 c0.06 0 0.06 -0.06 0.12 -0.06 l0 0.72 z M3 40.5 l0 -0.72 l3.96 -2.94 c0.06 -0.06 0.06 -0.06 0.12 -0.06 l0 0.72 z M22.98 41.34 l4.08 -3.06 l0 0.72 l-4.08 3.06 l0 -0.72 z M3 41.46 l4.08 -3.06 l0 0.72 l-4.08 3.06 l0 -0.72 z M22.98 43.68 l0 -0.72 l3.96 -3 l0.12 0 l0 0.72 l-4.02 3 l-0.06 0 z M3 43.08 l4.08 -3 l0 0.72 l-4.08 3 l0 -0.72 z M22.98 45.36 l0 -0.72 l4.02 -3.06 l0 0.66 c0 0.06 0 0.12 -0.06 0.12 z M3 45.480000000000004 l0 -0.72 l4.08 -3.06 l0 0.72 z M3.06 46.38 l4.02 -3.06 l0 0.06 s0.06 0.3 0.06 0.36 l0 0.18 l0 0.12 l-4.08 3.06 l0 -0.54 l0 -0.18 z M3.12 48 l4.02 -3.06 l0.06 0 c0 0.18 0.06 0.42 0.06 0.66 l-4.08 3.06 c-0.06 -0.18 -0.06 -0.42 -0.06 -0.66 z M26.28 46.2 l-0.06 0 l0.06 0 z M26.22 46.26 l0 -0.06 l0 0.06 z M3.36 50.16 l-0.12 -0.66 l4.08 -3.06 l0.12 0.66 z M23.22 46.86 l0 -0.06 l0 0.06 z M3.48 51 l4.08 -3.06 c0.06 0.12 0.12 0.48 0.12 0.66 l-4.08 3.06 l-0.12 -0.6 l0 -0.06 z M3.9 52.980000000000004 l-0.12 -0.54 l4.14 -3.06 l0.12 0.54 l0 0.06 l-4.08 3.06 z M4.2 53.76 l4.14 -3.06 c0.06 0.18 0.18 0.48 0.18 0.48 l-4.14 3.12 c-0.06 -0.18 -0.18 -0.36 -0.18 -0.54 z M4.74 55.019999999999996 l4.08 -3.12 l0.06 0 c0.06 0.12 0.18 0.3 0.24 0.54 l-4.14 3.06 s-0.06 -0.06 -0.06 -0.12 z M5.4 56.16 l4.2 -3.18 l0.36 0.48 l-4.14 3.12 c-0.24 -0.12 -0.36 -0.3 -0.42 -0.42 z M6.24 57.18 l4.2 -3.18 s0.3 0.24 0.48 0.36 l-4.2 3.18 c-0.18 -0.12 -0.36 -0.3 -0.48 -0.36 z M7.26 58.02 l0.06 0 l4.2 -3.18 c0.18 0.06 0.42 0.18 0.54 0.36 l-4.2 3.12 c-0.24 -0.06 -0.48 -0.18 -0.6 -0.3 z M8.52 58.74 l4.26 -3.18 c0.24 0.06 0.48 0.12 0.66 0.24 l-4.26 3.18 c-0.18 0 -0.48 -0.18 -0.66 -0.24 z M10.02 59.28 l4.26 -3.18 l0.12 -0.06 l0.72 0.18 l-4.38 3.24 c-0.18 -0.06 -0.6 -0.12 -0.72 -0.18 z M20.4 59.76 l4.5 -3.36 s0.48 -0.06 0.78 -0.06 c0.06 0 0.06 0.06 0.18 0.06 l-4.38 3.3 z M12.48 59.76 l-0.72 -0.12 l4.32 -3.24 l0.12 0 l0.72 0.06 l-4.32 3.24 c-0.06 0.06 0 0.06 -0.12 0.06 z M22.68 59.7 l4.44 -3.3 l0.84 0 l-4.38 3.3 l-0.9 0 z M24.84 59.7 l4.38 -3.3 l0.96 0 l-4.38 3.3 l-0.96 0 z M27 59.7 l4.44 -3.3 l0.96 0 l-4.44 3.3 l-0.96 0 z M17.94 59.94 l4.44 -3.3 s0.66 -0.06 1.08 -0.06 l-4.5 3.36 l-0.9 0 l-0.12 0 z M13.74 59.88 l-0.06 0 l4.32 -3.24 c0.06 -0.06 0.06 -0.06 0.12 -0.06 c0.24 0 0.54 0 0.78 0.06 l-4.38 3.3 c-0.24 0 -0.78 -0.06 -0.78 -0.06 z M16.68 60 l-0.96 0 l4.44 -3.3 l0.06 -0.06 l0.12 0.06 l0.72 0 z M30.18 59.7 l-0.96 0 l4.02 -3 l0 0.72 z M32.34 59.7 l-0.9 0 l1.86 -1.32 c0 0.24 -0.06 0.72 -0.3 0.9 c-0.06 0.06 -0.6 0.42 -0.66 0.42 z">
        </path>
    </g>
</svg>