<svg viewBox="0 0 300 100">
    <g id="SvgjsG2613" featurekey="nameFeature-0"
        transform="matrix(1.6305110210723879,0,0,1.6305110210723879,1.3911821330377068,0)" fill="#222831">
        <path
            d="M7.36 41.68 l0 -1.68 l-2.04 0 l-3.72 -3.72 l0 -20.56 l3.72 -3.72 l9.08 0 l3.72 3.72 l0 20.56 l-3.72 3.72 l-2 0 l0 1.68 l-5.04 0 z M7.4 34.96 l4.92 0 l0.76 -0.76 l0 -16.4 l-0.76 -0.76 l-4.92 0 l-0.76 0.76 l0 16.4 z M28.932 40 l-3.72 -3.72 l0 -24.28 l5.04 0 l0 22.2 l0.76 0.76 l4.64 0 l0.76 -0.76 l0 -22.2 l5.04 0 l0 24.28 l-3.72 3.72 l-8.8 0 z M48.544000000000004 40 l0 -28 l5.04 0 l0 28 l-5.04 0 z M60.676 40 l0 -28 l5.36 0 l4.16 10.6 l4.16 -10.6 l5.36 0 l0 28 l-5.04 0 l0 -15 l-2.48 6.32 l-4 0 l-2.48 -6.32 l0 15 l-5.04 0 z M86.80799999999999 40 l0 -28 l5.04 0 l0 28 l-5.04 0 z M104.26 40 l0 -22.96 l-5.32 0 l0 -5.04 l15.68 0 l0 5.04 l-5.32 0 l0 22.96 l-5.04 0 z M121.71199999999999 40 l0 -28 l13.72 0 l0 5.04 l-8.68 0 l0 6.44 l6.44 0 l0 5.04 l-6.44 0 l0 6.44 l8.68 0 l0 5.04 l-13.72 0 z M146.244 40 l-3.72 -3.72 l0 -5.24 l5.04 0 l0 3.16 l0.76 0.76 l4.08 0 l0.76 -0.76 l0 -4.92 l-0.76 -0.76 l-6.16 0 l-3.72 -3.72 l0 -9.08 l3.72 -3.72 l8.24 0 l3.72 3.72 l0 5.24 l-5.04 0 l0 -3.16 l-0.76 -0.76 l-4.08 0 l-0.76 0.76 l0 4.92 l0.76 0.76 l6.16 0 l3.72 3.72 l0 9.08 l-3.72 3.72 l-8.24 0 z M170.61599999999999 40 l0 -22.96 l-5.32 0 l0 -5.04 l15.68 0 l0 5.04 l-5.32 0 l0 22.96 l-5.04 0 z">
        </path>
    </g>
</svg>