<?xml version="1.0" encoding="UTF-8"?>
<svg width="75.32mm" height="92.604mm" version="1.1" viewBox="0 0 75.32 92.604" xmlns="http://www.w3.org/2000/svg" xmlns:cc="http://creativecommons.org/ns#" xmlns:dc="http://purl.org/dc/elements/1.1/" xmlns:rdf="http://www.w3.org/1999/02/22-rdf-syntax-ns#">
<title>PDF file icon</title>
<metadata>
<rdf:RDF>
<cc:Work rdf:about="">
<dc:format>image/svg+xml</dc:format>
<dc:type rdf:resource="http://purl.org/dc/dcmitype/StillImage"/>
<dc:title>PDF file icon</dc:title>
<dc:date>08/10/2018</dc:date>
<dc:creator>
<cc:Agent>
<dc:title>Adobe Systems</dc:title>
</cc:Agent>
</dc:creator>
<dc:publisher>
<cc:Agent>
<dc:title>CMetalCore</dc:title>
</cc:Agent>
</dc:publisher>
<dc:description>Fuente del texto "PDF":
Franklin Gothic Medium Cond</dc:description>
<cc:license rdf:resource="http://creativecommons.org/licenses/by-sa/4.0/"/>
</cc:Work>
<cc:License rdf:about="http://creativecommons.org/licenses/by-sa/4.0/">
<cc:permits rdf:resource="http://creativecommons.org/ns#Reproduction"/>
<cc:permits rdf:resource="http://creativecommons.org/ns#Distribution"/>
<cc:requires rdf:resource="http://creativecommons.org/ns#Notice"/>
<cc:requires rdf:resource="http://creativecommons.org/ns#Attribution"/>
<cc:permits rdf:resource="http://creativecommons.org/ns#DerivativeWorks"/>
<cc:requires rdf:resource="http://creativecommons.org/ns#ShareAlike"/>
</cc:License>
</rdf:RDF>
</metadata>
<g transform="translate(36.076 -93.732)">
<g transform="matrix(1.4843 0 0 1.4843 17.472 -90.244)">
<g>
<path d="m-29.633 123.95c-3.552 0-6.4434 2.8935-6.4434 6.4453v49.498c0 3.5518 2.8914 6.4453 6.4434 6.4453h37.85c3.552 0 6.4434-2.8934 6.4434-6.4453v-40.701s0.10135-1.1918-0.41602-2.3516c-0.48497-1.0871-1.2754-1.8438-1.2754-1.8438a1.0584 1.0584 0 0 0-0.0059-8e-3l-9.3906-9.2109a1.0584 1.0584 0 0 0-0.015625-0.0156s-0.80174-0.76344-1.9902-1.2734c-1.3994-0.6005-2.8418-0.53711-2.8418-0.53711l0.021484-2e-3z" color="#000000" color-rendering="auto" dominant-baseline="auto" fill="#ff2116" image-rendering="auto" shape-rendering="auto" solid-color="#000000" style="font-feature-settings:normal;font-variant-alternates:normal;font-variant-caps:normal;font-variant-ligatures:normal;font-variant-numeric:normal;font-variant-position:normal;isolation:auto;mix-blend-mode:normal;paint-order:markers fill stroke;shape-padding:0;text-decoration-color:#000000;text-decoration-line:none;text-decoration-style:solid;text-indent:0;text-orientation:mixed;text-transform:none;white-space:normal"/>
<path d="m-29.633 126.06h28.379a1.0584 1.0584 0 0 0 0.021484 0s1.1348 0.011 1.9648 0.36719c0.7989 0.34282 1.3654 0.86176 1.3691 0.86524 1.25e-5 1e-5 0.00391 4e-3 0.00391 4e-3l9.3672 9.1894s0.56435 0.59582 0.83789 1.209c0.22078 0.49491 0.23438 1.4004 0.23438 1.4004a1.0584 1.0584 0 0 0-2e-3 0.0449v40.746c0 2.4159-1.9103 4.3281-4.3262 4.3281h-37.85c-2.4159 0-4.3262-1.9121-4.3262-4.3281v-49.498c0-2.416 1.9103-4.3281 4.3262-4.3281z" color="#000000" color-rendering="auto" dominant-baseline="auto" fill="#f5f5f5" image-rendering="auto" shape-rendering="auto" solid-color="#000000" style="font-feature-settings:normal;font-variant-alternates:normal;font-variant-caps:normal;font-variant-ligatures:normal;font-variant-numeric:normal;font-variant-position:normal;isolation:auto;mix-blend-mode:normal;paint-order:markers fill stroke;shape-padding:0;text-decoration-color:#000000;text-decoration-line:none;text-decoration-style:solid;text-indent:0;text-orientation:mixed;text-transform:none;white-space:normal"/>
<path d="m-23.408 161.09c-1.4567-1.4567 0.11934-3.4584 4.3965-5.584l2.6912-1.3374 1.0484-2.294c0.57665-1.2617 1.4373-3.3204 1.9125-4.5748l0.8641-2.2808-0.59546-1.6879c-0.73217-2.0755-0.99326-5.1944-0.52872-6.3159 0.62923-1.5191 2.6903-1.3632 3.5063 0.26515 0.63727 1.2718 0.57212 3.5749-0.18329 6.4795l-0.6193 2.3812 0.5455 0.92604c0.30003 0.50932 1.1764 1.7187 1.9475 2.6874l1.4492 1.8027 1.8034-0.23533c5.729-0.74758 7.6912 0.523 7.6912 2.3448 0 2.2992-4.4985 2.489-8.2761-0.16423-0.84997-0.59698-1.4337-1.19-1.4337-1.19s-2.3665 0.48178-3.5317 0.79583c-1.2027 0.32417-1.8027 0.52719-3.5645 1.1219 0 0-0.61814 0.89767-1.0209 1.5503-1.4986 2.4279-3.2483 4.44-4.4979 5.1723-1.3991 0.81993-2.8658 0.87582-3.6043 0.13733zm2.286-0.81668c0.81883-0.50607 2.4762-2.4662 3.6234-4.2855l0.46449-0.73658-2.115 1.0634c-3.2666 1.6424-4.7609 3.1903-3.9839 4.1266 0.43653 0.52598 0.95874 0.48237 2.0109-0.16792zm21.218-5.9558c0.80089-0.56097 0.68463-1.6914-0.22082-2.1472-0.70466-0.35471-1.2726-0.42759-3.1032-0.40057-1.1249 0.0767-2.9338 0.3034-3.2403 0.37237 0 0 0.99372 0.68678 1.4349 0.93922 0.58731 0.33544 2.0145 0.95811 3.0565 1.2771 1.0278 0.31461 1.6224 0.28144 2.0729-0.0409zm-8.5315-3.5459c-0.4847-0.50952-1.3089-1.573-1.8315-2.3632-0.68353-0.89643-1.0263-1.5289-1.0263-1.5289s-0.4996 1.6069-0.90948 2.5739l-1.2788 3.1608-0.37075 0.71695s1.971-0.64627 2.9739-0.90822c1.0622-0.27744 3.2179-0.70134 3.2179-0.70134zm-2.7494-11.026c0.12363-1.0375 0.1761-2.0735-0.15724-2.5959-0.9246-1.0108-2.0406-0.16787-1.8515 2.2352 0.0636 0.8084 0.26443 2.1903 0.53292 3.0421l0.48817 1.5486 0.34358-1.1664c0.18897-0.64151 0.47882-2.0202 0.64411-3.0636z" fill="#ff2116" stroke-width=".26458"/>
<g fill="#2c2c2c">
<path d="m-20.93 167.84h2.365q1.1335 0 1.8402 0.2169 0.7067 0.20991 1.1895 0.9446 0.4828 0.72769 0.4828 1.7562 0 0.94459-0.39183 1.6233-0.39183 0.67871-1.0565 0.97958-0.65772 0.30087-2.0291 0.30087h-0.81865v3.7294h-1.5813zm1.5813 1.2245v3.3306h0.78366q1.0496 0 1.4484-0.39184 0.40583-0.39183 0.40583-1.2734 0-0.65772-0.26589-1.0636-0.26588-0.41282-0.58775-0.50378-0.31487-0.098-1.0006-0.098z"/>
<path d="m-13.842 167.84h2.1481q1.5603 0 2.4909 0.55276 0.9376 0.55276 1.4134 1.6443 0.48279 1.0915 0.48279 2.421 0 1.3994-0.43382 2.4979-0.42681 1.0915-1.3154 1.7632-0.88162 0.67172-2.5189 0.67172h-2.267zm1.5813 1.2664v7.018h0.65772q1.3784 0 2.0011-0.9516 0.62273-0.95858 0.62273-2.5539 0-3.5125-2.6239-3.5125z"/>
<path d="m-5.7889 167.84h5.3037v1.2664h-3.7224v2.8548h2.9807v1.2665h-2.9807v4.1632h-1.5813z"/>
</g>
</g>
</g>
</g>
</svg>
