<svg width="381.7158317756401" height="449.8500061035157" viewBox="0 0 296.4745067007786 349.3935738229269"
    class="css-1j8o68f logo">
    <defs id="SvgjsDefs2610"></defs>
    <g id="SvgjsG2611" featurekey="symbolContainer" transform="matrix(5.21875, 0, 0, 5.21875, 17.768503, 20)"
        class="bgLogo">
        <circle cx="25" cy="25" r="25"></circle>
    </g>
    <g transform="matrix(1, 0, 0, 1, 147.791946, 148.237)">
        <g class="qLogo">
            <g transform="translate(-148.237 -148.237)">
                <g id="SvgjsG2612" featurekey="monogramFeature-0"
                    transform="matrix(3.717588632517779,0,0,3.717588632517779,73.84723410244666,11.236184693708502)"
                    class="fgLogo">
                    <path
                        d="M10.38 46.980000000000004 l0 -23.34 l-1.38 -0.36 c-0.42 -0.12 -0.84 -0.66 -0.84 -1.14 l0 -6.06 c0 -0.42 0.42 -1.08 0.9 -1.08 l18.18 0 c0.06 0 0.54 0 0.66 0.06 c0.24 0 1.32 0.12 1.5 0.12 c6.9 0.9 7.14 6.9 7.14 12.48 l-0.18 2.04 c-0.12 1.74 -1.02 3.54 -2.28 4.8 c0.06 0 0.24 0.18 0.24 0.18 c2.34 1.68 2.94 5.22 2.94 7.92 l0 2.04 c0 6.9 -3.18 10.98 -10.56 10.98 l-17.64 0 c-0.54 0 -0.96 -0.66 -0.96 -1.14 l0 -5.88 c0 -0.48 0.36 -0.96 0.84 -1.08 z M3.06 21.54 l0 -0.72 l1.92 -1.44 l0.96 0 z M3.06 23.22 l0 -0.72 l4.08 -3.06 l0 0.72 z M3.06 24.18 l4.08 -3.06 l0 0.72 l-4.08 3.06 l0 -0.72 z M3.06 25.86 l4.02 -3.06 l0.06 0 c0 0.18 0.12 0.42 0.06 0.66 l0 0 l-4.08 3.06 l-0.06 0.06 c-0.06 -0.18 0 -0.42 0 -0.48 l0 -0.24 z M18.54 23.939999999999998 l0 1.92 l1.26 -0.9 l1.02 0 l-2.28 1.68 l0 0.9 l3.54 -2.58 l0.96 0 l-4.5 3.36 l0 2.52 l4.8 0 l0 -0.12 l4.08 -3.12 l0 0.78 l-3.36 2.46 l1.08 0 l0.24 0 l1.98 -1.5 c0 0.18 -0.12 0.84 -0.18 0.9 l-0.54 0.42 c0.18 0 0.42 -0.18 0.54 -0.24 c1.2 -0.66 1.26 -2.22 1.26 -3.36 c0 -3.06 -1.02 -3.12 -3.72 -3.12 l-6.18 0 z M3.36 27.299999999999997 l0.06 -0.06 l4.2 -3.12 c0.06 0 0.18 0.06 0.24 0.12 c0.12 0.06 0.24 0.06 0.42 0.12 l-4.44 3.3 c-0.06 0.06 -0.48 -0.36 -0.48 -0.36 z M5.34 28.02 l-0.54 -0.12 l4.38 -3.24 l0 -0.06 c0.12 0 0.24 0.06 0.24 0.06 l0 0.48 l-4.08 3.12 l0 -0.24 z M19.8 28.32 l4.5 -3.36 l0.12 0 l0.3 0 s0.3 0 0.48 0.06 l-4.44 3.3 c-0.06 0.06 -0.06 0 -0.12 0 l-0.84 0 z M21.84 28.5 l4.32 -3.3 c0.24 0 0.48 0.18 0.54 0.36 l-4.2 3.12 c-0.12 0 -0.66 -0.18 -0.66 -0.18 z M5.34 29.88 l0 -0.72 l4.08 -3.06 l0 0.72 z M23.04 29.28 l4.2 -3.18 c0.06 0.18 0.12 0.42 0.12 0.6 l-4.14 3.12 c-0.12 -0.12 -0.12 -0.36 -0.18 -0.54 z M5.34 30.84 l4.08 -3.06 l0 0.72 l-4.08 3.06 l0 -0.72 z M5.34 33.18 l0 -0.66 l4.08 -3.06 l0 0.66 z M5.34 34.86 l0 -0.72 l4.08 -3.06 l0 0.72 z M5.34 35.82 l4.08 -3.06 l0 0.72 l-4.08 3.06 l0 -0.72 z M5.34 37.5 l4.08 -3.06 l0 0.72 l-4.08 3.06 l0 -0.72 z M5.34 39.9 l0 -0.72 l4.02 -3.06 l0.06 0 l0 0.72 z M5.34 40.86 l4.08 -3.12 l0 0.78 l-4.08 3.06 l0 -0.72 z M18.54 39.120000000000005 l0.06 1.86 c0.12 -0.12 0.9 -0.72 1.08 -0.84 l1.02 0 l-2.16 1.56 l0 0.96 l3.42 -2.52 l0.9 0 l-4.32 3.18 l0 3.36 l5.82 0 l3.84 -2.88 l0 0.72 l-2.88 2.1 l0.12 0 c0.12 0 1.2 -0.06 1.26 -0.06 l1.38 -1.02 c0 0.24 -0.12 0.48 -0.18 0.66 c0.12 0 0.3 -0.12 0.36 -0.24 c0.9 -0.66 0.9 -1.92 0.9 -2.94 c0 -2.76 -0.54 -3.9 -3.48 -3.9 l-7.14 0 z M5.34 42.54 l4.08 -3.12 l0 0.72 l-4.08 3.12 l0 -0.72 z M19.62 43.5 l4.44 -3.36 l0.06 0 l0.3 0 l0.48 0 l0.18 0 l-4.5 3.36 l-0.96 0 z M21.78 43.56 l4.32 -3.24 l0.06 -0.06 c0.12 0 0.6 0.18 0.66 0.24 l-4.32 3.24 c-0.06 0 -0.24 -0.06 -0.24 -0.06 c-0.06 0 -0.42 -0.06 -0.48 -0.12 z M23.22 44.16 l4.2 -3.18 c0.12 0.06 0.18 0.18 0.18 0.18 c0.06 0.06 0.18 0.3 0.18 0.3 l-4.2 3.12 s-0.3 -0.36 -0.36 -0.42 z M5.34 44.94 l0 -0.72 l4.08 -3.12 l0 0.72 z M23.88 45.3 l4.14 -3.06 c0.06 0 0.12 0.6 0.12 0.66 l-4.14 3.06 c-0.06 -0.3 -0.06 -0.3 -0.12 -0.66 z M5.34 46.62 l0 -0.78 l4.08 -3.06 l0 0.72 z M5.34 47.519999999999996 l4.08 -3.06 l0 0.72 l-4.08 3.12 l0 -0.78 z M5.34 49.92 l0 -0.72 l4.08 -3.06 l0 0.72 z M5.34 51.42 l0 -0.54 l1.8 -1.32 l0 0.72 l-4.14 3.06 l0 -0.18 c0 -0.12 0 -0.54 0.12 -0.6 l1.02 -0.78 z M3 54.3 l4.14 -3.06 l0 0.66 l-4.14 3.06 l0 -0.66 z M3 56.64 l0 -0.72 l4.02 -3 c0.06 0 0.06 -0.06 0.12 -0.06 l0 0.72 z M3 58.32 l0 -0.72 l4.14 -3.06 l0 0.72 z M24.72 59.7 l4.62 -3.42 c0.12 -0.06 0.36 -0.12 0.42 -0.12 c0.12 -0.06 0.6 -0.18 0.72 -0.24 l0.06 0 c0 0.06 -0.18 0.3 -0.18 0.3 l-4.2 3.12 c-0.12 0.12 -1.32 0.36 -1.44 0.36 z M3.12 59.22 l4.14 -3.12 l0.06 0 c0.06 0.18 0.24 0.24 0.36 0.42 l-4.26 3.18 c-0.12 0 -0.36 -0.42 -0.36 -0.48 l0.06 0 z M22.26 59.94 l4.5 -3.36 l0.96 -0.06 l-4.56 3.42 l-0.9 0 z M4.32 60 l4.44 -3.36 l0.96 0 l-4.44 3.36 l-0.96 0 z M6.54 60 l4.44 -3.36 l1.02 0 l-4.5 3.36 l-0.96 0 z M9.78 60 l-1.02 0 l4.5 -3.36 l0.96 0 z M11.04 60 l4.44 -3.36 l0.96 0 l-4.44 3.36 l-0.96 0 z M13.26 60 l4.44 -3.36 l1.02 0 l-4.5 3.36 l-0.96 0 z M15.48 60 l4.5 -3.36 l0.96 0 l-4.44 3.36 l-1.02 0 z M18.72 60 l-0.96 0 l4.44 -3.36 l0.96 0 z M19.98 60 l4.44 -3.36 l0.96 0 l-4.44 3.36 l-0.96 0 z">
                    </path>
                </g>
            </g>
        </g>
    </g>
    <g id="SvgjsG2613" featurekey="nameFeature-0" transform="matrix(1.630511, 0, 0, 1.630511, 31.270924, 281.433868)"
        class="bgLogo logoText">
        <path
            d="M1.6 40 l0 -28 l11.68 0 l3.72 3.72 l0 8.24 l-2.04 2.04 l2.04 2.04 l0 8.24 l-3.72 3.72 l-11.68 0 z M6.64 34.96 l4.56 0 l0.76 -0.76 l0 -4.08 l-1.6 -1.6 l-3.72 0 l0 6.44 z M6.64 23.48 l3.72 0 l1.6 -1.6 l0 -4.08 l-0.76 -0.76 l-4.56 0 l0 6.44 z M24.092000000000002 40 l0 -28 l5.04 0 l0 28 l-5.04 0 z M39.944 40 l-3.72 -3.72 l0 -20.56 l3.72 -3.72 l9.08 0 l3.72 3.72 l0 20.56 l-3.72 3.72 l-9.08 0 z M42.024 34.96 l4.92 0 l0.76 -0.76 l0 -16.4 l-0.76 -0.76 l-4.92 0 l-0.76 0.76 l0 16.4 z M65.156 40 l0 -22.96 l-5.32 0 l0 -5.04 l15.68 0 l0 5.04 l-5.32 0 l0 22.96 l-5.04 0 z M82.608 40 l0 -28 l13.72 0 l0 5.04 l-8.68 0 l0 6.44 l6.44 0 l0 5.04 l-6.44 0 l0 6.44 l8.68 0 l0 5.04 l-13.72 0 z M107.14000000000001 40 l-3.72 -3.72 l0 -5.24 l5.04 0 l0 3.16 l0.76 0.76 l4.08 0 l0.76 -0.76 l0 -4.92 l-0.76 -0.76 l-6.16 0 l-3.72 -3.72 l0 -9.08 l3.72 -3.72 l8.24 0 l3.72 3.72 l0 5.24 l-5.04 0 l0 -3.16 l-0.76 -0.76 l-4.08 0 l-0.76 0.76 l0 4.92 l0.76 0.76 l6.16 0 l3.72 3.72 l0 9.08 l-3.72 3.72 l-8.24 0 z M131.512 40 l0 -22.96 l-5.32 0 l0 -5.04 l15.68 0 l0 5.04 l-5.32 0 l0 22.96 l-5.04 0 z">
        </path>
    </g>
</svg>