<svg width="381.7158317756401" height="449.8500061035157" viewBox="0 0 296.4745067007786 349.3935738229269"
    class="css-1j8o68f logo">
    <defs id="SvgjsDefs1347"></defs>
    <g id="SvgjsG1348" featurekey="symbolContainer" transform="matrix(4.928, 0, 0, 4.928, 25.037254, 20)"
        class="bgLogo">
        <circle cx="25" cy="25" r="25"></circle>
    </g>
    <g transform="matrix(1, 0, 0, 1, 152.867676, 148.237)">
        <g class="qLogo">
            <g transform="translate(-148.237 -148.237)">
                <g id="SvgjsG1349" featurekey="monogramFeature-0"
                    transform="matrix(3.9071048270519015,0,0,3.9071048270519015,73.2786855188443,-3.6065612274619454)"
                    class="fgLogo">
                    <path
                        d="M10.38 46.92 l0 -23.28 l-1.56 -0.54 c-0.36 -0.12 -0.72 -0.66 -0.72 -1.08 l0 -5.82 c0 -0.42 0.48 -1.2 0.96 -1.2 l22.98 0 c0.48 0 0.96 0.66 0.96 1.08 l0 9.6 c0 0.42 -0.48 1.08 -0.96 1.08 l-4.74 0 c-0.42 0 -0.84 -0.48 -0.9 -0.84 l-0.42 -1.98 l-7.44 0 l0 1.02 l0.6 0 l-0.6 0.42 l0 0.96 l1.86 -1.38 l0.96 0 l-2.82 2.1 l0 0.96 l4.08 -3.06 l0.96 0 l-4.44 3.36 l-0.6 0 l0 2.94 l6.66 0 c0.48 0.18 0.96 0.6 0.96 1.2 l0 6.36 c0 0.54 -0.54 1.14 -1.08 1.14 l-6.54 0 l0 1.44 c0.12 -0.06 0.48 -0.36 0.6 -0.42 l0.9 0 l-1.5 1.14 l0 0.9 l2.52 -1.86 l0 0.72 l-2.52 1.92 l0 3.12 l1.5 0.54 c0.48 0.18 0.84 0.6 0.84 1.2 l0 5.76 c0 0.48 -0.48 1.2 -1.02 1.2 l-10.8 0 c-0.48 0 -0.96 -0.66 -0.96 -1.2 l0 -5.88 s0.06 -0.18 0.06 -0.24 l-2.82 2.1 l0 -0.78 l4.08 -3.06 l0 0.72 z M4.26 19.380000000000003 l-1.2 0.9 c0 -0.54 0.72 -0.9 1.2 -0.9 z M3 21.299999999999997 l2.52 -1.92 l1.02 0 l-3.54 2.64 l0 -0.72 z M3 22.979999999999997 l4.14 -3.12 l0 0.78 l-4.14 3.06 l0 -0.72 z M3 25.380000000000003 l0 -0.72 l4.02 -3.06 l0.12 0 l0 0.72 z M3 26.340000000000003 l4.08 -3.12 l0.06 0 c0.06 0.18 0.12 0.36 0.24 0.54 l-4.2 3.18 c-0.12 -0.18 -0.18 -0.36 -0.18 -0.6 z M4.38 27.72 l-0.72 -0.24 l4.32 -3.18 c0.06 -0.06 0.12 -0.06 0.12 -0.06 l0.6 0.18 z M5.34 28.02 l-0.12 0 l4.2 -3.18 l0 0.72 l-4.08 3.12 l0 -0.66 z M20.4 28.32 l0 -0.06 l4.44 -3.3 l0.18 0 l0.06 0.48 l0 0.12 l-4.14 3.06 l-0.06 -0.3 l-0.48 0 z M21.18 29.4 l4.08 -3.06 c0.06 0.12 0.12 0.48 0.12 0.6 l-4.14 3.12 l-0.12 -0.6 c0 -0.06 0 -0.06 0.06 -0.06 z M5.34 30.36 l0 -0.78 l4.08 -3.06 l0 0.72 z M21.54 30.78 c0 0 0.06 0 0.06 -0.06 l4.2 -3.12 c0.24 0.12 0.42 0.18 0.66 0.24 l-4.44 3.3 l-0.12 -0.06 c-0.12 -0.06 -0.36 -0.18 -0.36 -0.3 z M24.24 31.2 l-0.96 0 l4.44 -3.36 c0.06 -0.06 0.06 -0.06 0.18 -0.06 l0 0.66 z M5.34 31.26 l4.08 -3.06 l0 0.66 l-4.08 3.06 l0 -0.66 z M26.46 31.2 l-0.96 0 l2.4 -1.8 l0 0.66 c0 0.06 0 0.06 -0.06 0.12 z M5.34 33.6 l0 -0.72 l4.08 -3.06 l0 0.72 z M5.34 35.28 l0 -0.72 l4.08 -3.06 l0 0.72 z M5.34 36.239999999999995 l4.08 -3.06 l0 0.72 l-4.08 3.06 l0 -0.72 z M5.34 37.92 l4.08 -3.06 l0 0.72 l-4.08 3.06 l0 -0.72 z M5.34 40.32 l0 -0.72 l4.08 -3.06 l0 0.72 z M5.34 41.28 l4.08 -3.06 l0 0.72 l-4.08 3.06 l0 -0.72 z M5.34 42.96 l4.08 -3.12 l0 0.78 l-4.08 3.06 l0 -0.72 z M5.34 45.36 l0 -0.72 l4.08 -3.12 l0 0.72 z M19.08 44.34 l1.92 -1.5 l0.06 0 c0 0.18 0 0.78 -0.18 0.84 c-0.12 0.12 -0.66 0.54 -0.84 0.66 l-0.96 0 z M5.34 46.32 l4.08 -3.12 l0 0.72 l-4.08 3.12 l0 -0.72 z M5.34 48 l4.08 -3.12 l0 0.72 l-4.08 3.12 l0 -0.72 z M3 53.76 l0 -0.72 l4.14 -3.06 l0 0.66 z M3 54.66 l4.14 -3.06 l0 0.72 l-4.14 3.12 l0 -0.78 z M3 57.12 l0 -0.78 l4.02 -3 c0.06 0 0.06 -0.06 0.12 -0.06 l0 0.72 z M3 58.02 l4.08 -3.06 l0.06 0 c0 0.18 0 0.48 -0.06 0.72 l-4.08 3.12 l0 -0.78 z M3.24 59.52 l4.2 -3.18 c0.3 0.18 0.42 0.24 0.66 0.3 l-4.38 3.3 c-0.06 0 -0.48 -0.42 -0.48 -0.42 z M5.88 60 l-1.02 0 l4.5 -3.36 l0.96 0 z M8.1 60 l-0.96 0 l4.44 -3.36 l0.96 0 z M9.36 60 l4.44 -3.36 l0.96 0 l-4.44 3.36 l-0.96 0 z M11.58 60 l4.2 -3.12 l0 0.72 l-3.24 2.4 l-0.96 0 z M13.86 60 l1.86 -1.44 l0.06 0 c0 0.3 0 0.72 -0.24 0.9 c-0.12 0.06 -0.6 0.42 -0.72 0.54 l-0.96 0 z">
                    </path>
                </g>
            </g>
        </g>
    </g>
    <g id="SvgjsG1350" featurekey="nameFeature-0" transform="matrix(1.743891, 0, 0, 1.743891, 14.756409, 265.073303)"
        class="bgLogo logoText">
        <path
            d="M1.6 40 l0 -28 l13.72 0 l0 5.04 l-8.68 0 l0 6.44 l6.44 0 l0 5.04 l-6.44 0 l0 11.48 l-5.04 0 z M22.412000000000003 40 l0 -28 l5.04 0 l0 28 l-5.04 0 z M38.264 40 l-3.72 -3.72 l0 -5.24 l5.04 0 l0 3.16 l0.76 0.76 l4.08 0 l0.76 -0.76 l0 -4.92 l-0.76 -0.76 l-6.16 0 l-3.72 -3.72 l0 -9.08 l3.72 -3.72 l8.24 0 l3.72 3.72 l0 5.24 l-5.04 0 l0 -3.16 l-0.76 -0.76 l-4.08 0 l-0.76 0.76 l0 4.92 l0.76 0.76 l6.16 0 l3.72 3.72 l0 9.08 l-3.72 3.72 l-8.24 0 z M57.316 40 l0 -28 l5.04 0 l0 28 l-5.04 0 z M74.768 40 l0 -22.96 l-5.32 0 l0 -5.04 l15.68 0 l0 5.04 l-5.32 0 l0 22.96 l-5.04 0 z M92.22 40 l0 -28 l13.72 0 l0 5.04 l-8.68 0 l0 6.44 l6.44 0 l0 5.04 l-6.44 0 l0 6.44 l8.68 0 l0 5.04 l-13.72 0 z M116.75200000000001 40 l-3.72 -3.72 l0 -5.24 l5.04 0 l0 3.16 l0.76 0.76 l4.08 0 l0.76 -0.76 l0 -4.92 l-0.76 -0.76 l-6.16 0 l-3.72 -3.72 l0 -9.08 l3.72 -3.72 l8.24 0 l3.72 3.72 l0 5.24 l-5.04 0 l0 -3.16 l-0.76 -0.76 l-4.08 0 l-0.76 0.76 l0 4.92 l0.76 0.76 l6.16 0 l3.72 3.72 l0 9.08 l-3.72 3.72 l-8.24 0 z M141.124 40 l0 -22.96 l-5.32 0 l0 -5.04 l15.68 0 l0 5.04 l-5.32 0 l0 22.96 l-5.04 0 z">
        </path>
    </g>
</svg>